<svg width="1366" height="1100" xmlns="http://www.w3.org/2000/svg" xmlns:xlink="http://www.w3.org/1999/xlink" overflow="hidden"><defs><clipPath id="clip0"><rect x="2346" y="1297" width="1366" height="1100"/></clipPath><clipPath id="clip1"><rect x="2354" y="1303" width="651" height="1093"/></clipPath><clipPath id="clip2"><rect x="2354" y="1303" width="651" height="1093"/></clipPath><clipPath id="clip3"><rect x="2123" y="456" width="1107" height="2785"/></clipPath><clipPath id="clip4"><rect x="2354" y="2092" width="1351" height="304"/></clipPath><clipPath id="clip5"><rect x="2354" y="2092" width="1351" height="304"/></clipPath><clipPath id="clip6"><rect x="1874" y="1856" width="2301" height="776"/></clipPath></defs><g clip-path="url(#clip0)" transform="translate(-2346 -1297)"><g clip-path="url(#clip1)"><g clip-path="url(#clip2)"><g clip-path="url(#clip3)"><path d="M889.5 767.916 884.078 767.916C642.441 728.419 691.245 337.317 557.254 337.317 417.079 340.417 483.683 712.15 228.105 767.916L228.111 322.614C228.111 321.839 227.336 320.292 225.789 320.292 224.242 320.286 223.466 321.061 223.466 322.614L223.466 771.021C223.466 772.568 225.013 774.121 226.566 774.121L889.5 774.121C891.045 774.121 892.598 772.574 892.598 771.021 891.822 769.475 891.045 767.923 889.494 767.923Z" fill="#C00000" fill-rule="nonzero" fill-opacity="1" transform="matrix(1 0 0 2.51503 2123.21 456.983)"/></g></g></g><g clip-path="url(#clip4)"><g clip-path="url(#clip5)"><g clip-path="url(#clip6)"><path d="M622.788 537.66 618.992 537.66C449.808 510.007 483.979 236.174 390.164 236.174 292.02 238.345 338.653 498.616 159.709 537.66L159.713 225.88C159.713 225.337 159.17 224.254 158.087 224.254 157.004 224.25 156.461 224.793 156.461 225.88L156.461 539.835C156.461 540.918 157.544 542.005 158.631 542.005L622.788 542.005C623.87 542.005 624.957 540.922 624.957 539.835 624.414 538.752 623.87 537.666 622.784 537.666Z" fill="#BFBFBF" fill-rule="nonzero" fill-opacity="0.9" transform="matrix(2.96857 0 0 1 1874.32 1856.2)"/></g></g></g><path d="M2354.5 2393.5 3705.87 2393.5" stroke="#7F7F7F" stroke-width="6.875" stroke-linecap="round" stroke-linejoin="miter" stroke-miterlimit="8" stroke-opacity="1" fill="none" fill-rule="evenodd"/><path d="M0 0 0.000360892 1088.37" stroke="#7F7F7F" stroke-width="6.875" stroke-linecap="round" stroke-linejoin="miter" stroke-miterlimit="8" stroke-opacity="1" fill="none" fill-rule="evenodd" transform="matrix(1 0 0 -1 2354.5 2392.87)"/><path d="M2354 1905 3705.37 1905" stroke="#7F7F7F" stroke-width="5.72917" stroke-linecap="butt" stroke-linejoin="miter" stroke-miterlimit="8" stroke-dasharray="45.8333 17.1875" stroke-opacity="0.85098" fill="none" fill-rule="evenodd"/></g></svg>