<svg width="190" height="319" xmlns="http://www.w3.org/2000/svg" xmlns:xlink="http://www.w3.org/1999/xlink" overflow="hidden"><defs><clipPath id="clip0"><rect x="684" y="378" width="190" height="319"/></clipPath><clipPath id="clip1"><rect x="685" y="379" width="189" height="318"/></clipPath><clipPath id="clip2"><rect x="685" y="379" width="189" height="318"/></clipPath></defs><g clip-path="url(#clip0)" transform="translate(-684 -378)"><g clip-path="url(#clip1)"><g clip-path="url(#clip2)"><path d="M258.639 223.286 257.063 223.286C186.802 211.802 200.993 98.0815 162.032 98.0815 121.274 98.9827 140.64 207.071 66.326 223.286L66.3277 93.8063C66.3277 93.5807 66.1022 93.131 65.6524 93.131 65.2026 93.1293 64.9771 93.3548 64.9771 93.8063L64.9771 224.189C64.9771 224.639 65.4269 225.091 65.8784 225.091L258.639 225.091C259.089 225.091 259.54 224.641 259.54 224.189 259.314 223.74 259.089 223.288 258.637 223.288Z" fill="#C00000" fill-rule="nonzero" fill-opacity="1" transform="matrix(1 0 0 2.51883 617.895 132.341)"/></g></g></g></svg>